<?xml version="1.0" standalone="no"?>
<!DOCTYPE svg PUBLIC "-//W3C//DTD SVG 20010904//EN"
 "http://www.w3.org/TR/2001/REC-SVG-20010904/DTD/svg10.dtd">
<svg version="1.0" xmlns="http://www.w3.org/2000/svg"
 width="576.000000pt" height="576.000000pt" viewBox="0 0 576.000000 576.000000"
 preserveAspectRatio="xMidYMid meet">
<metadata>
Created by potrace 1.11, written by Peter Selinger 2001-2013
</metadata>
<g transform="translate(0.000000,576.000000) scale(0.100000,-0.100000)"
fill="#000000" stroke="none">
<path d="M2958 5565 c-2 -2 -23 -4 -48 -6 -96 -6 -145 -38 -219 -144 -16 -22
-31 -50 -35 -61 -4 -12 -14 -24 -24 -28 -20 -6 -50 -25 -70 -43 -7 -7 -16 -13
-20 -13 -4 0 -23 -22 -42 -50 -19 -27 -38 -49 -43 -50 -10 0 -56 -101 -63
-139 -4 -17 -16 -37 -28 -45 -11 -8 -37 -28 -56 -45 -19 -17 -43 -34 -52 -37
-10 -3 -18 -9 -18 -13 0 -5 -22 -30 -50 -57 -27 -27 -50 -55 -50 -61 0 -7 -4
-13 -8 -13 -5 0 -15 -11 -22 -25 -11 -21 -21 -25 -59 -26 -40 0 -136 -15 -208
-32 -62 -15 -120 -50 -189 -113 l-23 -22 -46 22 c-43 21 -49 22 -123 10 -122
-21 -142 -26 -142 -35 0 -5 -3 -8 -7 -7 -13 3 -66 -24 -114 -59 -26 -18 -51
-33 -55 -33 -5 0 -31 -23 -58 -51 -27 -27 -55 -53 -61 -57 -13 -9 -106 -128
-121 -157 -10 -19 -22 -55 -31 -95 -5 -25 -3 -323 3 -350 3 -14 7 -36 10 -49
10 -51 31 -73 109 -117 45 -25 60 -28 145 -28 l94 -1 12 -41 c6 -22 19 -55 28
-72 18 -35 21 -114 5 -143 -9 -18 -17 -20 -57 -14 -26 3 -66 15 -89 26 -42 20
-122 26 -186 14 -30 -6 -124 -45 -172 -72 -16 -9 -52 -28 -80 -41 -110 -55
-262 -247 -313 -398 -46 -135 -49 -214 -15 -349 14 -55 29 -120 34 -145 6 -25
17 -76 25 -115 11 -49 13 -83 7 -115 -12 -60 -7 -238 6 -254 6 -7 9 -15 6 -18
-9 -9 23 -87 67 -160 58 -98 195 -237 248 -253 3 -1 21 -8 40 -16 45 -20 154
-46 205 -49 84 -5 90 -6 90 -21 1 -7 -15 -36 -35 -64 -45 -64 -57 -87 -84
-169 -22 -65 -22 -67 -4 -77 10 -6 15 -15 11 -22 -5 -8 -8 -8 -11 1 -2 7 -8
12 -13 12 -6 0 -5 -9 2 -21 6 -12 12 -54 14 -93 2 -71 28 -137 75 -191 9 -11
30 -43 45 -72 59 -110 127 -144 240 -118 17 4 53 8 80 10 28 1 50 3 50 4 0 1
20 4 45 7 25 2 63 7 85 10 22 3 57 6 78 7 20 0 37 5 37 11 0 6 5 4 10 -4 5 -8
10 -10 10 -5 0 11 44 16 153 17 31 0 57 4 57 7 0 4 15 7 33 7 39 0 139 14 150
21 4 2 20 7 34 9 15 3 31 11 35 17 4 7 8 9 8 4 0 -24 149 96 150 122 1 7 72
41 88 41 7 0 12 3 12 8 0 8 106 6 165 -4 22 -4 104 -8 182 -8 79 -1 143 -5
143 -9 0 -4 10 -3 21 4 15 8 19 8 15 0 -4 -6 -2 -11 3 -11 6 0 11 6 11 13 0 9
3 8 9 -2 7 -11 9 -11 14 0 4 10 6 10 6 2 1 -7 9 -13 19 -13 14 0 15 2 2 10 -9
6 -10 10 -3 10 6 0 15 -4 18 -10 3 -5 11 -10 16 -10 6 0 8 4 5 8 -3 5 1 9 9 9
8 0 12 -4 9 -8 -2 -4 5 -7 16 -6 11 1 20 4 20 7 0 3 19 6 43 6 23 0 62 3 87 8
25 4 63 9 85 12 21 3 43 8 47 10 5 3 23 7 41 9 18 3 50 8 72 12 22 4 50 7 63
6 12 0 22 3 22 8 0 5 7 5 17 2 12 -5 14 -3 8 8 -7 11 -6 12 6 2 12 -10 18 -10
29 0 10 10 11 9 5 -2 -6 -10 -2 -11 16 -6 47 16 88 23 94 17 3 -4 10 0 15 8 6
8 10 10 10 4 0 -7 23 -10 60 -10 33 1 60 -2 60 -6 0 -11 23 -5 32 7 5 7 8 6 8
0 0 -6 14 -12 31 -13 21 -2 28 1 23 9 -5 8 -3 9 7 3 8 -4 27 -9 44 -11 39 -3
61 -7 110 -21 22 -6 63 -13 90 -16 28 -3 100 -14 162 -25 62 -11 127 -17 145
-15 18 3 58 7 88 9 135 8 218 39 273 102 18 20 37 41 43 47 11 12 21 35 22 50
0 5 5 12 12 16 6 4 12 17 13 28 1 12 5 22 9 22 4 0 7 3 6 8 -3 11 23 56 39 65
7 5 10 13 7 19 -4 6 -3 8 2 5 6 -3 16 -2 23 2 14 9 14 13 -35 151 -14 41 -27
82 -27 91 -4 40 -255 262 -284 252 -7 -3 -36 3 -63 12 -28 9 -65 19 -83 21
-18 3 -43 7 -57 11 -14 3 -28 6 -31 5 -3 0 -35 24 -71 53 -49 41 -74 55 -95
53 -39 -2 -258 -55 -284 -69 -14 -7 -25 -7 -31 -1 -6 6 -20 5 -38 -5 -22 -10
-60 -13 -163 -10 -119 4 -141 7 -188 30 -30 14 -94 44 -144 67 -107 50 -128
66 -115 89 11 21 4 131 -10 145 -16 16 -12 56 5 56 27 0 134 -73 230 -159 43
-37 227 -127 310 -151 39 -11 95 -21 125 -21 55 -1 180 27 180 41 0 4 18 20
40 35 22 15 43 38 46 51 3 12 14 24 24 27 29 8 61 67 57 106 -2 26 1 35 18 43
50 23 76 180 40 245 -25 47 -33 55 -120 113 -13 9 -40 30 -62 47 -96 80 -127
105 -147 115 -22 12 -146 107 -210 160 -21 18 -62 48 -90 67 -28 19 -70 47
-93 63 -23 15 -44 28 -47 28 -3 0 -27 15 -53 33 -27 18 -61 39 -78 47 -16 8
-43 24 -60 36 -16 12 -75 43 -130 70 -55 26 -106 53 -112 60 -7 7 -28 22 -48
34 -28 18 -34 26 -29 44 5 18 69 122 84 136 19 17 48 73 65 125 23 67 25 69
165 80 41 4 92 8 113 10 172 18 405 90 445 138 7 8 25 20 41 27 18 7 39 30 55
60 29 54 33 88 11 97 -9 3 -15 13 -14 22 2 9 0 30 -4 46 -4 17 -9 44 -11 60
-7 53 -18 108 -32 167 -8 31 -16 85 -19 120 -9 110 -13 142 -28 191 -8 26 -13
47 -11 47 2 0 -8 21 -21 46 -14 26 -25 51 -25 56 0 11 -70 96 -125 153 -22 22
-65 68 -96 100 -31 33 -67 69 -80 80 -99 84 -126 105 -134 105 -5 0 -20 11
-34 24 -29 26 -115 58 -136 50 -9 -4 -21 9 -36 38 -39 78 -76 116 -126 130
-42 12 -46 16 -49 47 -7 55 -85 170 -117 171 -7 1 -31 5 -54 9 -23 5 -44 7
-45 6z m-884 -900 c-4 -8 -10 -15 -14 -15 -4 0 -10 7 -14 15 -4 10 1 15 14 15
13 0 18 -5 14 -15z m-407 -147 c-3 -8 -6 -5 -6 6 -1 11 2 17 5 13 3 -3 4 -12
1 -19z m-16 -35 c13 -16 12 -17 -3 -4 -10 7 -18 15 -18 17 0 8 8 3 21 -13z
m959 -408 c0 -9 -6 -12 -16 -8 -13 5 -13 7 -2 14 17 11 18 11 18 -6z m46 0
c-8 -9 -13 -23 -10 -33 5 -14 4 -14 -4 -2 -6 8 -8 18 -5 23 3 5 -1 13 -8 18
-10 6 -6 9 14 9 26 0 27 -2 13 -15z m825 -24 c-8 -5 -20 -7 -27 -4 -6 2 -24
-8 -40 -24 -15 -15 -22 -20 -15 -11 7 10 11 25 7 33 -4 12 4 15 42 15 31 0 42
-3 33 -9z m633 -124 c6 -33 5 -33 -25 -1 -17 18 -19 23 -6 18 11 -4 17 -1 17
7 0 20 8 6 14 -24z m-2167 -6 c8 8 6 -2 -7 -24 -25 -43 -40 -55 -35 -30 2 10
4 32 5 48 0 26 2 28 11 12 9 -15 13 -16 26 -6z m1337 -56 c-4 -8 -8 -15 -10
-15 -2 0 -4 7 -4 15 0 8 4 15 10 15 5 0 7 -7 4 -15z m-34 -26 c0 -6 -4 -7 -10
-4 -5 3 -10 11 -10 16 0 6 5 7 10 4 6 -3 10 -11 10 -16z m890 11 c0 -5 -2 -10
-4 -10 -3 0 -8 5 -11 10 -3 6 -1 10 4 10 6 0 11 -4 11 -10z m-976 -25 c-4 -8
-10 -15 -15 -15 -4 0 -6 7 -3 15 4 8 10 15 15 15 4 0 6 -7 3 -15z m-1264 -14
c0 -4 -7 -8 -15 -8 -16 0 -20 9 -9 20 8 8 24 -1 24 -12z m50 -1 c0 -5 -10 -10
-22 -9 -22 0 -22 1 -3 9 11 5 21 9 23 9 1 1 2 -3 2 -9z m1330 -54 c0 -2 -8
-10 -17 -17 -16 -13 -17 -12 -4 4 13 16 21 21 21 13z m20 -69 c0 -4 -6 -2 -14
5 -8 7 -12 17 -9 22 5 8 23 -12 23 -27z m90 -103 c0 -2 -9 -4 -20 -4 -11 0
-20 4 -20 9 0 5 9 7 20 4 11 -3 20 -7 20 -9z m-464 -703 c0 -11 -5 -17 -13
-14 -10 4 -11 9 -2 19 15 18 15 18 15 -5z m1494 -781 c0 -5 -5 -10 -11 -10 -5
0 -7 5 -4 10 3 6 8 10 11 10 2 0 4 -4 4 -10z m-2983 -378 c9 -6 7 -11 -7 -20
-17 -11 -20 -10 -20 8 0 21 7 25 27 12z m1613 -496 c0 -2 -7 -7 -16 -10 -8 -3
-12 -2 -9 4 6 10 25 14 25 6z m-466 -161 c-4 -8 -11 -12 -16 -9 -6 4 -5 10 3
15 19 12 19 11 13 -6z m991 -105 c3 -6 -1 -7 -9 -4 -18 7 -21 14 -7 14 6 0 13
-4 16 -10z m48 -70 c3 -11 1 -20 -4 -20 -5 0 -9 9 -9 20 0 11 2 20 4 20 2 0 6
-9 9 -20z m-48 -30 c-3 -5 -11 -10 -16 -10 -6 0 -7 5 -4 10 3 6 11 10 16 10 6
0 7 -4 4 -10z m-1021 -49 c-8 -9 -22 12 -17 26 6 15 7 14 13 -3 4 -10 6 -21 4
-23z m-37 23 c-3 -3 -12 -4 -19 -1 -8 3 -5 6 6 6 11 1 17 -2 13 -5z"/>
</g>
</svg>
